<?xml version="1.0" encoding="utf-8"?>
<!-- Generator: Adobe Illustrator 16.0.0, SVG Export Plug-In . SVG Version: 6.00 Build 0)  -->
<!DOCTYPE svg PUBLIC "-//W3C//DTD SVG 1.1//EN" "http://www.w3.org/Graphics/SVG/1.1/DTD/svg11.dtd">
<svg version="1.1" id="Layer_1" xmlns="http://www.w3.org/2000/svg" xmlns:xlink="http://www.w3.org/1999/xlink" x="0px" y="0px"
	 width="17px" height="20px" viewBox="0 0 17 20" enable-background="new 0 0 17 20" xml:space="preserve">
<g>
	<path fill="#1C1C1E" d="M16.323,6.015c-0.051-0.122-0.125-0.231-0.217-0.323l-5.398-5.398c-0.092-0.092-0.201-0.166-0.323-0.216
		C10.265,0.027,10.134,0,10,0H2.8C2.051,0,1.348,0.292,0.821,0.82C0.292,1.348,0,2.051,0,2.8v14.4c0,0.748,0.292,1.45,0.82,1.979
		S2.051,20,2.8,20h10.8c0.748,0,1.451-0.291,1.98-0.82s0.82-1.231,0.82-1.979V6.4C16.4,6.267,16.373,6.136,16.323,6.015z M11,3.414
		L12.986,5.4H11V3.414z M14.166,17.766C14.015,17.917,13.813,18,13.6,18H2.8c-0.21,0-0.417-0.085-0.565-0.234
		C2.083,17.614,2,17.414,2,17.2V2.8c0-0.21,0.085-0.417,0.235-0.566C2.383,2.085,2.589,2,2.8,2H9v4.4c0,0.552,0.447,1,1,1h4.4v9.8
		C14.4,17.414,14.317,17.614,14.166,17.766z"/>
	<path fill="#1C1C1E" d="M11.801,9.9H4.6c-0.552,0-1,0.448-1,1c0,0.553,0.448,1,1,1h7.201c0.553,0,1-0.447,1-1
		C12.801,10.348,12.354,9.9,11.801,9.9z"/>
	<path fill="#1C1C1E" d="M11.801,13.5H4.6c-0.552,0-1,0.447-1,1s0.448,1,1,1h7.201c0.553,0,1-0.447,1-1S12.354,13.5,11.801,13.5z"/>
	<path fill="#1C1C1E" d="M4.6,8.3h1.8c0.552,0,1-0.448,1-1s-0.448-1-1-1H4.6c-0.552,0-1,0.448-1,1S4.048,8.3,4.6,8.3z"/>
</g>
</svg>
