<svg width="50" height="50" viewBox="0 0 50 50" fill="none" xmlns="http://www.w3.org/2000/svg">
<circle cx="25" cy="25" r="25" fill="#AA4FF6"/>
<path d="M28.6726 17.5C29.8936 17.7382 31.0156 18.3353 31.8952 19.2149C32.7748 20.0945 33.3719 21.2166 33.6101 22.4375M28.6726 12.5C31.2092 12.7818 33.5746 13.9177 35.3804 15.7213C37.1863 17.5248 38.3252 19.8888 38.6101 22.425M37.3601 32.4V36.15C37.3616 36.4981 37.2902 36.8427 37.1508 37.1617C37.0113 37.4807 36.8068 37.767 36.5502 38.0023C36.2937 38.2377 35.9909 38.4169 35.6611 38.5284C35.3313 38.6399 34.9819 38.6813 34.6351 38.65C30.7887 38.2321 27.0939 36.9177 23.8476 34.8125C20.8274 32.8933 18.2668 30.3327 16.3476 27.3125C14.2351 24.0515 12.9204 20.3387 12.5101 16.475C12.4789 16.1293 12.52 15.781 12.6308 15.452C12.7416 15.1231 12.9196 14.8209 13.1536 14.5645C13.3876 14.3082 13.6724 14.1034 13.9899 13.9632C14.3074 13.8229 14.6506 13.7503 14.9976 13.75H18.7476C19.3543 13.744 19.9424 13.9588 20.4023 14.3544C20.8623 14.75 21.1627 15.2993 21.2476 15.9C21.4059 17.1001 21.6995 18.2784 22.1226 19.4125C22.2908 19.8599 22.3272 20.3461 22.2275 20.8136C22.1278 21.2811 21.8962 21.7101 21.5601 22.05L19.9726 23.6375C21.7521 26.7669 24.3432 29.3581 27.4726 31.1375L29.0601 29.55C29.4 29.2139 29.8291 28.9823 30.2965 28.8826C30.764 28.7829 31.2502 28.8193 31.6976 28.9875C32.8317 29.4107 34.0101 29.7042 35.2101 29.8625C35.8174 29.9482 36.3719 30.254 36.7683 30.7219C37.1647 31.1897 37.3754 31.787 37.3601 32.4Z" stroke="white" stroke-width="2" stroke-linecap="round" stroke-linejoin="round"/>
</svg>
