<svg width="50" height="50" viewBox="0 0 50 50" fill="none" xmlns="http://www.w3.org/2000/svg">
<circle cx="25" cy="25" r="25" fill="#AA4FF6"/>
<path d="M36.25 24.375C36.2543 26.0249 35.8688 27.6524 35.125 29.125C34.243 30.8897 32.8872 32.374 31.2093 33.4116C29.5314 34.4493 27.5978 34.9993 25.625 35C23.9752 35.0043 22.3476 34.6189 20.875 33.875L13.75 36.25L16.125 29.125C15.3812 27.6524 14.9957 26.0249 15 24.375C15.0008 22.4022 15.5508 20.4686 16.5884 18.7907C17.626 17.1128 19.1103 15.757 20.875 14.875C22.3476 14.1312 23.9752 13.7457 25.625 13.75H26.25C28.8554 13.8938 31.3163 14.9935 33.1614 16.8386C35.0065 18.6837 36.1063 21.1446 36.25 23.75V24.375Z" stroke="white" stroke-width="2" stroke-linecap="round" stroke-linejoin="round"/>
</svg>
