<?xml version="1.0" encoding="utf-8"?>
<!-- Generator: Adobe Illustrator 16.0.0, SVG Export Plug-In . SVG Version: 6.00 Build 0)  -->
<!DOCTYPE svg PUBLIC "-//W3C//DTD SVG 1.1//EN" "http://www.w3.org/Graphics/SVG/1.1/DTD/svg11.dtd">
<svg version="1.1" id="Layer_1" xmlns="http://www.w3.org/2000/svg" xmlns:xlink="http://www.w3.org/1999/xlink" x="0px" y="0px"
	 width="20px" height="20px" viewBox="0 0 20 20" enable-background="new 0 0 20 20" xml:space="preserve">
<g>
	<path fill="#1C1C1E" d="M1,20c-0.257,0-0.509-0.099-0.699-0.284c-0.271-0.266-0.369-0.66-0.253-1.021l1.708-5.33
		c-0.524-1.212-0.798-2.54-0.795-3.867c0-1.757,0.472-3.478,1.363-4.976C3.218,3.018,4.496,1.805,6.02,1.013
		C7.279,0.351,8.696,0,10.114,0h0.501c2.317,0.132,4.441,1.118,6.037,2.778c1.588,1.65,2.53,3.842,2.654,6.169L19.308,9.5
		c0.003,1.464-0.331,2.93-0.966,4.237c-0.758,1.576-1.924,2.902-3.371,3.833c-2.55,1.642-5.862,1.858-8.557,0.611l-5.086,1.763
		C1.221,19.982,1.11,20,1,20z M10.135,2C9.019,2,7.924,2.271,6.946,2.785c-1.197,0.622-2.2,1.576-2.903,2.758
		C3.336,6.733,2.962,8.101,2.961,9.5c-0.003,1.164,0.262,2.326,0.765,3.362c0.112,0.231,0.131,0.498,0.053,0.743l-1.216,3.794
		l3.59-1.244c0.261-0.092,0.549-0.069,0.793,0.06c2.185,1.148,4.897,0.988,6.942-0.326c1.136-0.73,2.054-1.775,2.652-3.022
		c0.505-1.038,0.77-2.2,0.767-3.364V9c-0.097-1.795-0.842-3.531-2.097-4.836c-1.245-1.296-2.897-2.065-4.653-2.166L10.135,2z"/>
</g>
</svg>
