<?xml version="1.0" encoding="utf-8"?>
<!-- Generator: Adobe Illustrator 16.0.0, SVG Export Plug-In . SVG Version: 6.00 Build 0)  -->
<!DOCTYPE svg PUBLIC "-//W3C//DTD SVG 1.1//EN" "http://www.w3.org/Graphics/SVG/1.1/DTD/svg11.dtd">
<svg version="1.1" id="Layer_1" xmlns="http://www.w3.org/2000/svg" xmlns:xlink="http://www.w3.org/1999/xlink" x="0px" y="0px"
	 width="20px" height="20px" viewBox="0 0 20 20" enable-background="new 0 0 20 20" xml:space="preserve">
<g>
	<path fill="#1C1C1E" d="M7,20H3c-0.801,0-1.555-0.313-2.121-0.879C0.312,18.555,0,17.801,0,17V3c0-0.801,0.312-1.555,0.879-2.121
		C1.445,0.312,2.199,0,3,0h4c0.552,0,1,0.448,1,1S7.552,2,7,2H3C2.737,2,2.479,2.107,2.293,2.293C2.107,2.479,2,2.737,2,3v14
		c0,0.263,0.107,0.521,0.293,0.707C2.479,17.894,2.737,18,3,18h4c0.552,0,1,0.447,1,1S7.552,20,7,20z"/>
</g>
<g>
	<path fill="#1C1C1E" d="M14,16c-0.256,0-0.512-0.098-0.707-0.293c-0.391-0.391-0.391-1.023,0-1.414L17.586,10l-4.293-4.293
		c-0.391-0.391-0.391-1.023,0-1.414s1.023-0.391,1.414,0l5,5c0.391,0.391,0.391,1.023,0,1.414l-5,5C14.512,15.902,14.256,16,14,16z"
		/>
</g>
<g>
	<path fill="#1C1C1E" d="M19,11H7c-0.552,0-1-0.447-1-1c0-0.552,0.448-1,1-1h12c0.553,0,1,0.448,1,1C20,10.553,19.553,11,19,11z"/>
</g>
</svg>
