<svg width="20" height="24" viewBox="0 0 20 24" fill="none" xmlns="http://www.w3.org/2000/svg">
<path fill-rule="evenodd" clip-rule="evenodd" d="M10.1702 0C10.7273 0.115747 11.2415 0.316944 11.6742 0.704657C12.5674 1.50499 12.8411 2.82552 12.3297 3.91428C11.8083 5.02433 10.6442 5.65264 9.42846 5.48019C8.24919 5.3129 7.28471 4.34594 7.11428 3.16019C6.903 1.68972 7.85383 0.345927 9.31539 0.0480719C9.36698 0.0375196 9.41636 0.0162743 9.46678 4.7231e-05C9.70127 3.32046e-07 9.93572 0 10.1702 0Z" fill="#1C1C1E"/>
<path fill-rule="evenodd" clip-rule="evenodd" d="M11.0945 15.204C11.5787 15.0423 11.9517 14.763 12.085 14.2221C13.2179 15.933 13.4969 18.7761 11.9591 21.1069C10.3903 23.4845 7.4803 24.5406 4.68249 23.7302C2.05226 22.9684 0.141784 20.4526 0.0901009 17.6958C0.0306331 14.5228 2.13161 12.3127 4.08542 11.5762C4.23798 11.7761 4.36321 11.9966 4.54175 12.1581C4.7164 12.3161 4.94536 12.4141 5.15359 12.5401C4.84261 12.6643 4.53589 12.7867 4.20459 12.9188C4.89086 14.1081 5.56063 15.2686 6.23034 16.4292C6.24366 16.4279 6.25694 16.4265 6.27026 16.4251C6.27026 15.3268 6.27026 14.2284 6.27026 13.0749C6.4669 13.1718 6.62641 13.2325 6.76293 13.3267C6.81396 13.3619 6.83 13.4748 6.83037 13.5524C6.83492 14.4273 6.83328 15.3024 6.83333 16.1773C6.83333 16.2596 6.83333 16.3419 6.83333 16.4242C6.84998 16.4282 6.86658 16.4323 6.88323 16.4365C7.33786 15.6511 7.79255 14.8659 8.25858 14.0609C8.41752 14.1391 8.56709 14.2126 8.7408 14.298C8.27022 15.1154 7.81032 15.9141 7.31418 16.7759C7.44554 16.7088 7.51261 16.6781 7.57625 16.6414C8.41462 16.1582 9.25359 15.676 10.0895 15.1886C10.2175 15.1139 10.3254 15.09 10.4802 15.1335C10.6784 15.1891 10.8951 15.179 11.104 15.1971C11.0439 15.2421 10.9876 15.294 10.9229 15.3314C9.90375 15.9214 8.88337 16.5094 7.8636 17.0985C7.79536 17.1379 7.72975 17.1819 7.61921 17.2511C9.0228 17.2511 10.3623 17.2511 11.7213 17.2511C11.6889 16.533 11.5053 15.8723 11.1917 15.2455C11.1798 15.2214 11.1278 15.2174 11.0945 15.204ZM10.8977 20.3541C9.7132 19.6705 8.54978 18.9991 7.38631 18.3277C7.37421 18.3409 7.36211 18.3541 7.35001 18.3673C8.0225 19.532 8.69503 20.6967 9.37539 21.875C9.99323 21.4712 10.4826 20.9777 10.8977 20.3541ZM2.22344 14.7235C3.40375 15.4045 4.5689 16.0767 5.73415 16.7489C5.74494 16.7338 5.75578 16.7187 5.76656 16.7036C5.0937 15.5392 4.42084 14.3749 3.74297 13.2018C3.12001 13.6171 2.62724 14.1067 2.22344 14.7235ZM3.74531 21.8756C4.43163 20.6857 5.10172 19.524 5.77186 18.3623C5.75742 18.3518 5.74297 18.3413 5.72853 18.3309C4.5629 19.0045 3.39727 19.6781 2.22358 20.3563C2.63479 20.9762 3.12573 21.4688 3.74531 21.8756ZM1.95391 19.8882C3.13905 19.2033 4.29933 18.5328 5.51218 17.8318C4.09546 17.8318 2.75073 17.8318 1.39488 17.8318C1.43727 18.5609 1.61873 19.2307 1.95391 19.8882ZM6.85269 18.586C6.85269 20.0033 6.85269 21.3474 6.85269 22.7038C7.58671 22.6591 8.26055 22.4824 8.90678 22.1433C8.22397 20.9608 7.55496 19.8022 6.85269 18.586ZM1.95297 15.1903C1.61788 15.8564 1.42935 16.5271 1.39839 17.2443C2.76658 17.2443 4.10685 17.2443 5.51054 17.2443C4.2952 16.5426 3.13652 15.8737 1.95297 15.1903ZM7.67699 17.8285C7.67296 17.8405 7.66888 17.8525 7.6648 17.8645C8.827 18.5355 9.9892 19.2063 11.1675 19.8866C11.4989 19.2292 11.6876 18.5584 11.7217 17.8285C10.36 17.8285 9.01853 17.8285 7.67699 17.8285ZM6.26238 22.7014C6.26238 21.3295 6.26238 19.9923 6.26238 18.5941C5.56068 19.8096 4.89166 20.9686 4.21252 22.145C4.86676 22.4791 5.53901 22.6626 6.26238 22.7014Z" fill="#1C1C1E"/>
<path fill-rule="evenodd" clip-rule="evenodd" d="M13.3992 15.2033C13.2514 15.2534 13.1336 15.2934 13.0329 15.3275C12.7865 14.8517 12.5653 14.3706 12.2952 13.9186C12.0324 13.4786 11.8491 12.968 11.3105 12.7366C11.3244 12.7179 11.3384 12.6991 11.3522 12.6804C11.9883 12.4538 12.6229 12.2225 13.2613 12.0027C13.5254 11.9117 13.7937 11.802 14.0673 11.7755C14.7576 11.7085 15.3067 12.0456 15.6071 12.6895C16.3458 14.2725 17.0776 15.8587 17.8122 17.4437C18.2287 18.3423 18.6514 19.2382 19.0598 20.1405C19.4739 21.0556 19.0159 22.0408 18.0705 22.2951C17.3466 22.4898 16.6141 22.1335 16.2782 21.4117C15.4754 19.6866 14.6774 17.9591 13.8774 16.2326C13.7204 15.8939 13.5628 15.5555 13.3992 15.2033Z" fill="#1C1C1E"/>
<path fill-rule="evenodd" clip-rule="evenodd" d="M6.71587 10.7899C7.23283 11.0471 7.72663 11.2931 8.22067 11.5385C9.22637 12.0381 10.2333 12.5352 11.2375 13.0378C11.655 13.2467 11.8683 13.606 11.8326 14.0118C11.7694 14.7322 11.0489 15.1236 10.3771 14.794C9.33386 14.282 8.29434 13.7624 7.25337 13.2458C6.51289 12.8784 5.77259 12.5106 5.0321 12.1433C4.36421 11.8119 4.19326 11.2596 4.56123 10.6141C5.19489 9.50243 5.82859 8.39079 6.46482 7.28059C6.67975 6.9055 7.01081 6.71931 7.43933 6.76954C7.85546 6.81826 8.14145 7.05998 8.26466 7.46631C8.35334 7.75868 8.29261 8.03389 8.14061 8.29746C7.66937 9.11505 7.20352 9.93587 6.71587 10.7899Z" fill="#1C1C1E"/>
<path fill-rule="evenodd" clip-rule="evenodd" d="M10.5785 12.0623C9.99226 11.6435 9.3866 11.306 8.71707 11.1044C8.33757 10.9901 7.9454 10.9183 7.55989 10.8234C7.41216 10.787 7.2671 10.7398 7.09751 10.6908C7.54197 9.91097 7.96392 9.1648 8.39206 8.42221C8.5723 8.10958 8.64021 7.78016 8.54716 7.43212C8.40346 6.89475 8.04234 6.57232 7.49704 6.4955C6.96976 6.42121 6.54077 6.62837 6.26121 7.08113C5.95444 7.57793 5.67582 8.09208 5.35358 8.65332C5.30855 8.23681 5.37116 7.89051 5.48325 7.55622C5.80845 6.58644 6.41893 5.91077 7.4607 5.70474C7.85273 5.62726 8.2062 5.75051 8.5208 5.97253C9.1628 6.42581 9.4744 7.07761 9.63859 7.82912C9.94132 9.21452 10.2668 10.5949 10.5822 11.9775C10.5854 11.9919 10.5812 12.0079 10.5785 12.0623Z" fill="#1C1C1E"/>
<path fill-rule="evenodd" clip-rule="evenodd" d="M3.6066 11.3991C3.48129 10.885 3.35883 10.3705 3.22982 9.85766C3.15811 9.5727 3.15571 9.20956 2.97478 9.03036C2.80017 8.85754 2.4368 8.87372 2.15555 8.81059C1.59239 8.6842 1.02857 8.56086 0.465216 8.4354C0.134297 8.36172 -0.0521264 8.11428 0.0128286 7.83763C0.0812542 7.54643 0.337979 7.40203 0.668101 7.47482C1.65063 7.69154 2.63185 7.91426 3.61579 8.12442C3.7866 8.1609 3.8546 8.2403 3.89156 8.40693C4.02334 9.00072 4.17928 9.58921 4.30948 10.1834C4.3348 10.2988 4.29813 10.4337 4.26736 10.5538C4.23866 10.6656 4.14031 10.77 4.1412 10.8772C4.14416 11.2357 3.89836 11.3202 3.6066 11.3991Z" fill="#1C1C1E"/>
<path fill-rule="evenodd" clip-rule="evenodd" d="M12.3584 22.2983C12.3548 21.3718 13.0902 20.6292 14.0152 20.6253C14.9425 20.6213 15.6923 21.3554 15.7 22.2749C15.7078 23.2036 14.9565 23.9618 14.0267 23.9636C13.1061 23.9653 12.362 23.2225 12.3584 22.2983ZM15.0037 22.2839C15.0006 21.7381 14.5571 21.3034 14.0123 21.312C13.4798 21.3205 13.0452 21.7584 13.0425 22.289C13.0398 22.8288 13.4836 23.2697 14.0288 23.269C14.5778 23.2683 15.0068 22.8346 15.0037 22.2839Z" fill="#1C1C1E"/>
<path fill-rule="evenodd" clip-rule="evenodd" d="M8.95896 11.5144C9.27966 11.6747 9.60035 11.835 9.92105 11.9954C9.91213 12.0141 9.90313 12.0329 9.89417 12.0516C9.57235 11.8932 9.25053 11.7347 8.92871 11.5763C8.93875 11.5556 8.94883 11.535 8.95896 11.5144Z" fill="#1C1C1E"/>
<path fill-rule="evenodd" clip-rule="evenodd" d="M13.541 22.2882C13.5428 22.015 13.759 21.8019 14.0318 21.8042C14.2995 21.8065 14.5235 22.0324 14.5207 22.2973C14.5178 22.5602 14.2857 22.7877 14.0232 22.785C13.7559 22.7821 13.5392 22.559 13.541 22.2882Z" fill="#1C1C1E"/>
</svg>
