<?xml version="1.0" encoding="utf-8"?>
<!-- Generator: Adobe Illustrator 16.0.0, SVG Export Plug-In . SVG Version: 6.00 Build 0)  -->
<!DOCTYPE svg PUBLIC "-//W3C//DTD SVG 1.1//EN" "http://www.w3.org/Graphics/SVG/1.1/DTD/svg11.dtd">
<svg version="1.1" id="Layer_1" xmlns="http://www.w3.org/2000/svg" xmlns:xlink="http://www.w3.org/1999/xlink" x="0px" y="0px"
	 width="20px" height="24px" viewBox="0 0 20 24" enable-background="new 0 0 20 24" xml:space="preserve">
<g>
	<path fill="#1C1C1E" d="M10,24c-0.193,0-0.387-0.056-0.555-0.168C9.06,23.575,0,17.449,0,10c0-2.671,1.041-5.183,2.929-7.071
		C4.817,1.041,7.329,0,10,0c2.671,0,5.182,1.041,7.07,2.929C18.96,4.817,20,7.329,20,10c0,7.449-9.06,13.575-9.445,13.832
		C10.387,23.944,10.193,24,10,24z M10,2C7.863,2,5.854,2.832,4.343,4.343C2.832,5.854,2,7.863,2,10c0,5.413,6.103,10.363,8,11.771
		c1.897-1.407,8-6.357,8-11.771c0-2.137-0.832-4.146-2.344-5.656C14.146,2.832,12.137,2,10,2z"/>
</g>
<g>
	<path fill="#1C1C1E" d="M10,14c-2.206,0-4-1.794-4-4s1.794-4,4-4c2.206,0,4,1.794,4,4S12.206,14,10,14z M10,8c-1.103,0-2,0.897-2,2
		s0.897,2,2,2c1.103,0,2-0.897,2-2S11.103,8,10,8z"/>
</g>
</svg>
