<?xml version="1.0" encoding="utf-8"?>
<!-- Generator: Adobe Illustrator 16.0.0, SVG Export Plug-In . SVG Version: 6.00 Build 0)  -->
<!DOCTYPE svg PUBLIC "-//W3C//DTD SVG 1.1//EN" "http://www.w3.org/Graphics/SVG/1.1/DTD/svg11.dtd">
<svg version="1.1" id="Layer_1" xmlns="http://www.w3.org/2000/svg" xmlns:xlink="http://www.w3.org/1999/xlink" x="0px" y="0px"
	 width="24px" height="18px" viewBox="0 0 24 18" enable-background="new 0 0 24 18" xml:space="preserve">
<path fill="#1C1C1E" d="M21,0H3C1.346,0,0,1.346,0,3v12c0,1.654,1.346,3,3,3h18c1.654,0,3-1.346,3-3V3C24,1.346,22.654,0,21,0z M3,2
	h18c0.552,0,1,0.449,1,1v3H2V3C2,2.449,2.449,2,3,2z M21,16H3c-0.551,0-1-0.448-1-1V8h20v7C22,15.552,21.552,16,21,16z"/>
</svg>
