<?xml version="1.0" encoding="utf-8"?>
<!-- Generator: Adobe Illustrator 16.0.0, SVG Export Plug-In . SVG Version: 6.00 Build 0)  -->
<!DOCTYPE svg PUBLIC "-//W3C//DTD SVG 1.1//EN" "http://www.w3.org/Graphics/SVG/1.1/DTD/svg11.dtd">
<svg version="1.1" id="Layer_1" xmlns="http://www.w3.org/2000/svg" xmlns:xlink="http://www.w3.org/1999/xlink" x="0px" y="0px"
	 width="18px" height="20px" viewBox="0 0 18 20" enable-background="new 0 0 18 20" xml:space="preserve">
<g>
	<path fill="#1C1C1E" d="M17,20c-0.553,0-1-0.447-1-1v-2c0-0.789-0.32-1.563-0.879-2.121S13.789,14,13,14H5
		c-0.801,0-1.554,0.313-2.122,0.879C2.32,15.438,2,16.21,2,17v2c0,0.553-0.448,1-1,1s-1-0.447-1-1v-2
		c0-1.336,0.52-2.591,1.464-3.535C2.41,12.521,3.665,12,5,12h8c1.335,0,2.591,0.521,3.535,1.465S18,15.665,18,17v2
		C18,19.553,17.553,20,17,20z"/>
</g>
<g>
	<path fill="#1C1C1E" d="M9,10c-2.757,0-5-2.243-5-5s2.243-5,5-5s5,2.243,5,5S11.757,10,9,10z M9,2C7.346,2,6,3.346,6,5s1.346,3,3,3
		s3-1.346,3-3S10.654,2,9,2z"/>
</g>
</svg>
